<mxfile host="app.diagrams.net" modified="2023-07-08T14:16:34.199Z" agent="Mozilla/5.0 (Windows NT 10.0; Win64; x64) AppleWebKit/537.36 (KHTML, like Gecko) Chrome/114.0.0.0 Safari/537.36" etag="JRb3daoQWE8LO7XAo_XM" version="21.6.1" type="github" pages="3">
  <diagram name="페이지-1" id="81K0AAlTXBskSxtC1oPu">
    <mxGraphModel dx="1434" dy="828" grid="1" gridSize="10" guides="1" tooltips="1" connect="1" arrows="1" fold="1" page="1" pageScale="1" pageWidth="827" pageHeight="1169" math="0" shadow="0">
      <root>
        <mxCell id="0" />
        <mxCell id="1" parent="0" />
        <mxCell id="_y7gnkOJSxhy1jmr7wn6-1" value="직원" style="rounded=0;whiteSpace=wrap;html=1;fontSize=17;" vertex="1" parent="1">
          <mxGeometry x="195" y="270" width="80" height="30" as="geometry" />
        </mxCell>
        <mxCell id="_y7gnkOJSxhy1jmr7wn6-2" value="시도" style="ellipse;whiteSpace=wrap;html=1;" vertex="1" parent="1">
          <mxGeometry x="110" y="120" width="70" height="40" as="geometry" />
        </mxCell>
        <mxCell id="_y7gnkOJSxhy1jmr7wn6-3" value="상세주소" style="ellipse;whiteSpace=wrap;html=1;" vertex="1" parent="1">
          <mxGeometry x="200" y="120" width="70" height="40" as="geometry" />
        </mxCell>
        <mxCell id="_y7gnkOJSxhy1jmr7wn6-4" value="주소" style="ellipse;whiteSpace=wrap;html=1;" vertex="1" parent="1">
          <mxGeometry x="150" y="190" width="70" height="40" as="geometry" />
        </mxCell>
        <mxCell id="_y7gnkOJSxhy1jmr7wn6-5" value="" style="endArrow=none;html=1;rounded=0;entryX=0.5;entryY=0;entryDx=0;entryDy=0;exitX=0.5;exitY=1;exitDx=0;exitDy=0;" edge="1" parent="1" source="_y7gnkOJSxhy1jmr7wn6-2" target="_y7gnkOJSxhy1jmr7wn6-4">
          <mxGeometry width="50" height="50" relative="1" as="geometry">
            <mxPoint x="650" y="400" as="sourcePoint" />
            <mxPoint x="700" y="350" as="targetPoint" />
          </mxGeometry>
        </mxCell>
        <mxCell id="_y7gnkOJSxhy1jmr7wn6-6" value="" style="endArrow=none;html=1;rounded=0;exitX=0.5;exitY=1;exitDx=0;exitDy=0;" edge="1" parent="1" source="_y7gnkOJSxhy1jmr7wn6-3">
          <mxGeometry width="50" height="50" relative="1" as="geometry">
            <mxPoint x="135" y="170" as="sourcePoint" />
            <mxPoint x="185" y="190" as="targetPoint" />
          </mxGeometry>
        </mxCell>
        <mxCell id="_y7gnkOJSxhy1jmr7wn6-7" value="참여" style="ellipse;shape=doubleEllipse;margin=3;whiteSpace=wrap;html=1;align=center;" vertex="1" parent="1">
          <mxGeometry x="270" y="180" width="70" height="40" as="geometry" />
        </mxCell>
        <mxCell id="_y7gnkOJSxhy1jmr7wn6-8" value="프로젝트" style="ellipse;whiteSpace=wrap;html=1;" vertex="1" parent="1">
          <mxGeometry x="360" y="140" width="70" height="40" as="geometry" />
        </mxCell>
        <mxCell id="_y7gnkOJSxhy1jmr7wn6-9" value="주당&lt;br&gt;근무시간" style="ellipse;whiteSpace=wrap;html=1;" vertex="1" parent="1">
          <mxGeometry x="360" y="200" width="70" height="40" as="geometry" />
        </mxCell>
        <mxCell id="_y7gnkOJSxhy1jmr7wn6-10" value="" style="endArrow=none;html=1;rounded=0;exitX=0;exitY=1;exitDx=0;exitDy=0;entryX=0.5;entryY=0;entryDx=0;entryDy=0;" edge="1" parent="1" source="_y7gnkOJSxhy1jmr7wn6-7" target="_y7gnkOJSxhy1jmr7wn6-1">
          <mxGeometry width="50" height="50" relative="1" as="geometry">
            <mxPoint x="245" y="170" as="sourcePoint" />
            <mxPoint x="195" y="200" as="targetPoint" />
          </mxGeometry>
        </mxCell>
        <mxCell id="_y7gnkOJSxhy1jmr7wn6-11" value="" style="endArrow=none;html=1;rounded=0;exitX=0.5;exitY=1;exitDx=0;exitDy=0;entryX=0.5;entryY=0;entryDx=0;entryDy=0;" edge="1" parent="1" source="_y7gnkOJSxhy1jmr7wn6-4" target="_y7gnkOJSxhy1jmr7wn6-1">
          <mxGeometry width="50" height="50" relative="1" as="geometry">
            <mxPoint x="290" y="234" as="sourcePoint" />
            <mxPoint x="210" y="270" as="targetPoint" />
          </mxGeometry>
        </mxCell>
        <mxCell id="_y7gnkOJSxhy1jmr7wn6-13" value="" style="endArrow=none;html=1;rounded=0;exitX=0;exitY=0.5;exitDx=0;exitDy=0;entryX=0.957;entryY=0.325;entryDx=0;entryDy=0;entryPerimeter=0;" edge="1" parent="1" source="_y7gnkOJSxhy1jmr7wn6-8" target="_y7gnkOJSxhy1jmr7wn6-7">
          <mxGeometry width="50" height="50" relative="1" as="geometry">
            <mxPoint x="290" y="234" as="sourcePoint" />
            <mxPoint x="340" y="210" as="targetPoint" />
          </mxGeometry>
        </mxCell>
        <mxCell id="_y7gnkOJSxhy1jmr7wn6-14" value="" style="endArrow=none;html=1;rounded=0;exitX=0.014;exitY=0.325;exitDx=0;exitDy=0;exitPerimeter=0;entryX=1;entryY=0.5;entryDx=0;entryDy=0;" edge="1" parent="1" source="_y7gnkOJSxhy1jmr7wn6-9" target="_y7gnkOJSxhy1jmr7wn6-7">
          <mxGeometry width="50" height="50" relative="1" as="geometry">
            <mxPoint x="370" y="182" as="sourcePoint" />
            <mxPoint x="340" y="210" as="targetPoint" />
          </mxGeometry>
        </mxCell>
        <mxCell id="_y7gnkOJSxhy1jmr7wn6-17" value="부서" style="ellipse;whiteSpace=wrap;html=1;" vertex="1" parent="1">
          <mxGeometry x="190" y="330" width="70" height="40" as="geometry" />
        </mxCell>
        <mxCell id="_y7gnkOJSxhy1jmr7wn6-18" value="감독자" style="ellipse;whiteSpace=wrap;html=1;" vertex="1" parent="1">
          <mxGeometry x="270" y="330" width="70" height="40" as="geometry" />
        </mxCell>
        <mxCell id="_y7gnkOJSxhy1jmr7wn6-19" value="급여" style="ellipse;whiteSpace=wrap;html=1;" vertex="1" parent="1">
          <mxGeometry x="50" y="210" width="70" height="40" as="geometry" />
        </mxCell>
        <mxCell id="_y7gnkOJSxhy1jmr7wn6-20" value="성별" style="ellipse;whiteSpace=wrap;html=1;" vertex="1" parent="1">
          <mxGeometry x="50" y="265" width="70" height="40" as="geometry" />
        </mxCell>
        <mxCell id="_y7gnkOJSxhy1jmr7wn6-21" value="이름" style="ellipse;whiteSpace=wrap;html=1;" vertex="1" parent="1">
          <mxGeometry x="50" y="320" width="70" height="40" as="geometry" />
        </mxCell>
        <mxCell id="_y7gnkOJSxhy1jmr7wn6-22" value="생년원일" style="ellipse;whiteSpace=wrap;html=1;" vertex="1" parent="1">
          <mxGeometry x="50" y="380" width="70" height="40" as="geometry" />
        </mxCell>
        <mxCell id="_y7gnkOJSxhy1jmr7wn6-23" value="&lt;u&gt;주민번호&lt;/u&gt;" style="ellipse;whiteSpace=wrap;html=1;" vertex="1" parent="1">
          <mxGeometry x="50" y="440" width="70" height="40" as="geometry" />
        </mxCell>
        <mxCell id="_y7gnkOJSxhy1jmr7wn6-25" value="" style="endArrow=none;html=1;rounded=0;exitX=1;exitY=0.5;exitDx=0;exitDy=0;entryX=0;entryY=0.5;entryDx=0;entryDy=0;" edge="1" parent="1" source="_y7gnkOJSxhy1jmr7wn6-19" target="_y7gnkOJSxhy1jmr7wn6-1">
          <mxGeometry width="50" height="50" relative="1" as="geometry">
            <mxPoint x="195" y="240" as="sourcePoint" />
            <mxPoint x="245" y="280" as="targetPoint" />
          </mxGeometry>
        </mxCell>
        <mxCell id="_y7gnkOJSxhy1jmr7wn6-26" value="" style="endArrow=none;html=1;rounded=0;exitX=1;exitY=0.5;exitDx=0;exitDy=0;entryX=0;entryY=0.5;entryDx=0;entryDy=0;" edge="1" parent="1" source="_y7gnkOJSxhy1jmr7wn6-20" target="_y7gnkOJSxhy1jmr7wn6-1">
          <mxGeometry width="50" height="50" relative="1" as="geometry">
            <mxPoint x="130" y="240" as="sourcePoint" />
            <mxPoint x="205" y="295" as="targetPoint" />
          </mxGeometry>
        </mxCell>
        <mxCell id="_y7gnkOJSxhy1jmr7wn6-27" value="" style="endArrow=none;html=1;rounded=0;exitX=1;exitY=0.5;exitDx=0;exitDy=0;entryX=0;entryY=0.5;entryDx=0;entryDy=0;" edge="1" parent="1" source="_y7gnkOJSxhy1jmr7wn6-21" target="_y7gnkOJSxhy1jmr7wn6-1">
          <mxGeometry width="50" height="50" relative="1" as="geometry">
            <mxPoint x="130" y="295" as="sourcePoint" />
            <mxPoint x="205" y="295" as="targetPoint" />
          </mxGeometry>
        </mxCell>
        <mxCell id="_y7gnkOJSxhy1jmr7wn6-28" value="" style="endArrow=none;html=1;rounded=0;exitX=1;exitY=0.5;exitDx=0;exitDy=0;entryX=0;entryY=0.5;entryDx=0;entryDy=0;" edge="1" parent="1" source="_y7gnkOJSxhy1jmr7wn6-22" target="_y7gnkOJSxhy1jmr7wn6-1">
          <mxGeometry width="50" height="50" relative="1" as="geometry">
            <mxPoint x="130" y="350" as="sourcePoint" />
            <mxPoint x="205" y="295" as="targetPoint" />
          </mxGeometry>
        </mxCell>
        <mxCell id="_y7gnkOJSxhy1jmr7wn6-29" value="" style="endArrow=none;html=1;rounded=0;exitX=1;exitY=0.5;exitDx=0;exitDy=0;entryX=0;entryY=0.5;entryDx=0;entryDy=0;" edge="1" parent="1" source="_y7gnkOJSxhy1jmr7wn6-23" target="_y7gnkOJSxhy1jmr7wn6-1">
          <mxGeometry width="50" height="50" relative="1" as="geometry">
            <mxPoint x="130" y="410" as="sourcePoint" />
            <mxPoint x="205" y="295" as="targetPoint" />
          </mxGeometry>
        </mxCell>
        <mxCell id="_y7gnkOJSxhy1jmr7wn6-30" value="" style="endArrow=none;html=1;rounded=0;exitX=0.5;exitY=0;exitDx=0;exitDy=0;entryX=0.5;entryY=1;entryDx=0;entryDy=0;" edge="1" parent="1" source="_y7gnkOJSxhy1jmr7wn6-17" target="_y7gnkOJSxhy1jmr7wn6-1">
          <mxGeometry width="50" height="50" relative="1" as="geometry">
            <mxPoint x="290" y="224" as="sourcePoint" />
            <mxPoint x="245" y="280" as="targetPoint" />
          </mxGeometry>
        </mxCell>
        <mxCell id="_y7gnkOJSxhy1jmr7wn6-31" value="" style="endArrow=none;html=1;rounded=0;exitX=0;exitY=0;exitDx=0;exitDy=0;entryX=0.5;entryY=1;entryDx=0;entryDy=0;" edge="1" parent="1" source="_y7gnkOJSxhy1jmr7wn6-18" target="_y7gnkOJSxhy1jmr7wn6-1">
          <mxGeometry width="50" height="50" relative="1" as="geometry">
            <mxPoint x="235" y="340" as="sourcePoint" />
            <mxPoint x="245" y="310" as="targetPoint" />
          </mxGeometry>
        </mxCell>
        <mxCell id="_y7gnkOJSxhy1jmr7wn6-32" value="부양가족" style="shape=ext;margin=3;double=1;whiteSpace=wrap;html=1;align=center;" vertex="1" parent="1">
          <mxGeometry x="95" y="550" width="100" height="40" as="geometry" />
        </mxCell>
        <mxCell id="_y7gnkOJSxhy1jmr7wn6-33" value="직원" style="ellipse;whiteSpace=wrap;html=1;" vertex="1" parent="1">
          <mxGeometry x="125" y="650" width="70" height="40" as="geometry" />
        </mxCell>
        <mxCell id="_y7gnkOJSxhy1jmr7wn6-34" value="이름" style="ellipse;whiteSpace=wrap;html=1;" vertex="1" parent="1">
          <mxGeometry x="205" y="490" width="70" height="40" as="geometry" />
        </mxCell>
        <mxCell id="_y7gnkOJSxhy1jmr7wn6-35" value="성별" style="ellipse;whiteSpace=wrap;html=1;" vertex="1" parent="1">
          <mxGeometry x="285" y="530" width="70" height="40" as="geometry" />
        </mxCell>
        <mxCell id="_y7gnkOJSxhy1jmr7wn6-37" value="생년월일" style="ellipse;whiteSpace=wrap;html=1;" vertex="1" parent="1">
          <mxGeometry x="285" y="580" width="70" height="40" as="geometry" />
        </mxCell>
        <mxCell id="_y7gnkOJSxhy1jmr7wn6-38" value="관계" style="ellipse;whiteSpace=wrap;html=1;" vertex="1" parent="1">
          <mxGeometry x="205" y="610" width="70" height="40" as="geometry" />
        </mxCell>
        <mxCell id="_y7gnkOJSxhy1jmr7wn6-39" value="" style="endArrow=none;html=1;rounded=0;exitX=0.5;exitY=1;exitDx=0;exitDy=0;entryX=0.5;entryY=0;entryDx=0;entryDy=0;" edge="1" parent="1" source="_y7gnkOJSxhy1jmr7wn6-32" target="_y7gnkOJSxhy1jmr7wn6-33">
          <mxGeometry width="50" height="50" relative="1" as="geometry">
            <mxPoint x="105" y="440" as="sourcePoint" />
            <mxPoint x="180" y="265" as="targetPoint" />
          </mxGeometry>
        </mxCell>
        <mxCell id="_y7gnkOJSxhy1jmr7wn6-40" value="" style="endArrow=none;html=1;rounded=0;exitX=1;exitY=0.5;exitDx=0;exitDy=0;entryX=0;entryY=0;entryDx=0;entryDy=0;" edge="1" parent="1" source="_y7gnkOJSxhy1jmr7wn6-32" target="_y7gnkOJSxhy1jmr7wn6-38">
          <mxGeometry width="50" height="50" relative="1" as="geometry">
            <mxPoint x="155" y="600" as="sourcePoint" />
            <mxPoint x="170" y="660" as="targetPoint" />
          </mxGeometry>
        </mxCell>
        <mxCell id="_y7gnkOJSxhy1jmr7wn6-41" value="" style="endArrow=none;html=1;rounded=0;exitX=1;exitY=0.5;exitDx=0;exitDy=0;entryX=0.386;entryY=0.975;entryDx=0;entryDy=0;entryPerimeter=0;" edge="1" parent="1" source="_y7gnkOJSxhy1jmr7wn6-32" target="_y7gnkOJSxhy1jmr7wn6-34">
          <mxGeometry width="50" height="50" relative="1" as="geometry">
            <mxPoint x="205" y="580" as="sourcePoint" />
            <mxPoint x="225" y="626" as="targetPoint" />
          </mxGeometry>
        </mxCell>
        <mxCell id="_y7gnkOJSxhy1jmr7wn6-42" value="" style="endArrow=none;html=1;rounded=0;entryX=0;entryY=0.5;entryDx=0;entryDy=0;exitX=1;exitY=0.5;exitDx=0;exitDy=0;" edge="1" parent="1" source="_y7gnkOJSxhy1jmr7wn6-32" target="_y7gnkOJSxhy1jmr7wn6-35">
          <mxGeometry width="50" height="50" relative="1" as="geometry">
            <mxPoint x="195" y="570" as="sourcePoint" />
            <mxPoint x="229" y="541" as="targetPoint" />
          </mxGeometry>
        </mxCell>
        <mxCell id="_y7gnkOJSxhy1jmr7wn6-43" value="" style="endArrow=none;html=1;rounded=0;entryX=0;entryY=0.5;entryDx=0;entryDy=0;" edge="1" parent="1" target="_y7gnkOJSxhy1jmr7wn6-37">
          <mxGeometry width="50" height="50" relative="1" as="geometry">
            <mxPoint x="195" y="570" as="sourcePoint" />
            <mxPoint x="295" y="560" as="targetPoint" />
          </mxGeometry>
        </mxCell>
        <mxCell id="_y7gnkOJSxhy1jmr7wn6-44" value="프로젝트" style="rounded=0;whiteSpace=wrap;html=1;fontSize=17;" vertex="1" parent="1">
          <mxGeometry x="538" y="550" width="80" height="30" as="geometry" />
        </mxCell>
        <mxCell id="_y7gnkOJSxhy1jmr7wn6-45" value="부서" style="ellipse;whiteSpace=wrap;html=1;" vertex="1" parent="1">
          <mxGeometry x="538" y="620" width="70" height="40" as="geometry" />
        </mxCell>
        <mxCell id="_y7gnkOJSxhy1jmr7wn6-46" value="프로젝트명" style="ellipse;whiteSpace=wrap;html=1;" vertex="1" parent="1">
          <mxGeometry x="668" y="500" width="80" height="40" as="geometry" />
        </mxCell>
        <mxCell id="_y7gnkOJSxhy1jmr7wn6-47" value="지역" style="ellipse;whiteSpace=wrap;html=1;" vertex="1" parent="1">
          <mxGeometry x="668" y="560" width="80" height="40" as="geometry" />
        </mxCell>
        <mxCell id="_y7gnkOJSxhy1jmr7wn6-48" value="프로젝트번호" style="ellipse;whiteSpace=wrap;html=1;" vertex="1" parent="1">
          <mxGeometry x="668" y="620" width="90" height="40" as="geometry" />
        </mxCell>
        <mxCell id="_y7gnkOJSxhy1jmr7wn6-49" value="" style="endArrow=none;html=1;rounded=0;entryX=0.5;entryY=0;entryDx=0;entryDy=0;exitX=0.5;exitY=1;exitDx=0;exitDy=0;" edge="1" parent="1" source="_y7gnkOJSxhy1jmr7wn6-44" target="_y7gnkOJSxhy1jmr7wn6-45">
          <mxGeometry width="50" height="50" relative="1" as="geometry">
            <mxPoint x="283" y="580" as="sourcePoint" />
            <mxPoint x="373" y="610" as="targetPoint" />
          </mxGeometry>
        </mxCell>
        <mxCell id="_y7gnkOJSxhy1jmr7wn6-50" value="" style="endArrow=none;html=1;rounded=0;entryX=0;entryY=0.5;entryDx=0;entryDy=0;exitX=1;exitY=0.5;exitDx=0;exitDy=0;" edge="1" parent="1" source="_y7gnkOJSxhy1jmr7wn6-44" target="_y7gnkOJSxhy1jmr7wn6-48">
          <mxGeometry width="50" height="50" relative="1" as="geometry">
            <mxPoint x="588" y="590" as="sourcePoint" />
            <mxPoint x="583" y="630" as="targetPoint" />
          </mxGeometry>
        </mxCell>
        <mxCell id="_y7gnkOJSxhy1jmr7wn6-51" value="" style="endArrow=none;html=1;rounded=0;entryX=0;entryY=0.5;entryDx=0;entryDy=0;exitX=1;exitY=0.5;exitDx=0;exitDy=0;" edge="1" parent="1" source="_y7gnkOJSxhy1jmr7wn6-44" target="_y7gnkOJSxhy1jmr7wn6-47">
          <mxGeometry width="50" height="50" relative="1" as="geometry">
            <mxPoint x="628" y="575" as="sourcePoint" />
            <mxPoint x="678" y="650" as="targetPoint" />
          </mxGeometry>
        </mxCell>
        <mxCell id="_y7gnkOJSxhy1jmr7wn6-52" value="" style="endArrow=none;html=1;rounded=0;entryX=0;entryY=0.5;entryDx=0;entryDy=0;exitX=1;exitY=0.5;exitDx=0;exitDy=0;" edge="1" parent="1" source="_y7gnkOJSxhy1jmr7wn6-44" target="_y7gnkOJSxhy1jmr7wn6-46">
          <mxGeometry width="50" height="50" relative="1" as="geometry">
            <mxPoint x="618" y="570" as="sourcePoint" />
            <mxPoint x="678" y="590" as="targetPoint" />
          </mxGeometry>
        </mxCell>
        <mxCell id="_y7gnkOJSxhy1jmr7wn6-62" value="부서" style="rounded=0;whiteSpace=wrap;html=1;fontSize=17;" vertex="1" parent="1">
          <mxGeometry x="538" y="270" width="80" height="30" as="geometry" />
        </mxCell>
        <mxCell id="_y7gnkOJSxhy1jmr7wn6-63" value="관리시작일" style="ellipse;whiteSpace=wrap;html=1;" vertex="1" parent="1">
          <mxGeometry x="453" y="320" width="70" height="40" as="geometry" />
        </mxCell>
        <mxCell id="_y7gnkOJSxhy1jmr7wn6-64" value="부서명" style="ellipse;whiteSpace=wrap;html=1;" vertex="1" parent="1">
          <mxGeometry x="668" y="220" width="80" height="40" as="geometry" />
        </mxCell>
        <mxCell id="_y7gnkOJSxhy1jmr7wn6-66" value="부서번호" style="ellipse;whiteSpace=wrap;html=1;" vertex="1" parent="1">
          <mxGeometry x="668" y="340" width="90" height="40" as="geometry" />
        </mxCell>
        <mxCell id="_y7gnkOJSxhy1jmr7wn6-67" value="" style="endArrow=none;html=1;rounded=0;entryX=0.5;entryY=0;entryDx=0;entryDy=0;exitX=0;exitY=0.75;exitDx=0;exitDy=0;" edge="1" parent="1" source="_y7gnkOJSxhy1jmr7wn6-62" target="_y7gnkOJSxhy1jmr7wn6-63">
          <mxGeometry width="50" height="50" relative="1" as="geometry">
            <mxPoint x="283" y="300" as="sourcePoint" />
            <mxPoint x="373" y="330" as="targetPoint" />
          </mxGeometry>
        </mxCell>
        <mxCell id="_y7gnkOJSxhy1jmr7wn6-68" value="" style="endArrow=none;html=1;rounded=0;entryX=0;entryY=0.5;entryDx=0;entryDy=0;exitX=1;exitY=0.5;exitDx=0;exitDy=0;" edge="1" parent="1" source="_y7gnkOJSxhy1jmr7wn6-62" target="_y7gnkOJSxhy1jmr7wn6-66">
          <mxGeometry width="50" height="50" relative="1" as="geometry">
            <mxPoint x="588" y="310" as="sourcePoint" />
            <mxPoint x="583" y="350" as="targetPoint" />
          </mxGeometry>
        </mxCell>
        <mxCell id="_y7gnkOJSxhy1jmr7wn6-69" value="" style="endArrow=none;html=1;rounded=0;entryX=0;entryY=0.5;entryDx=0;entryDy=0;exitX=1;exitY=0.5;exitDx=0;exitDy=0;" edge="1" parent="1" source="_y7gnkOJSxhy1jmr7wn6-62">
          <mxGeometry width="50" height="50" relative="1" as="geometry">
            <mxPoint x="628" y="295" as="sourcePoint" />
            <mxPoint x="668" y="300" as="targetPoint" />
          </mxGeometry>
        </mxCell>
        <mxCell id="_y7gnkOJSxhy1jmr7wn6-70" value="" style="endArrow=none;html=1;rounded=0;entryX=0;entryY=0.5;entryDx=0;entryDy=0;exitX=1;exitY=0.5;exitDx=0;exitDy=0;" edge="1" parent="1" source="_y7gnkOJSxhy1jmr7wn6-62" target="_y7gnkOJSxhy1jmr7wn6-64">
          <mxGeometry width="50" height="50" relative="1" as="geometry">
            <mxPoint x="618" y="290" as="sourcePoint" />
            <mxPoint x="678" y="310" as="targetPoint" />
          </mxGeometry>
        </mxCell>
        <mxCell id="_y7gnkOJSxhy1jmr7wn6-71" value="관리자" style="ellipse;whiteSpace=wrap;html=1;" vertex="1" parent="1">
          <mxGeometry x="453" y="250" width="70" height="40" as="geometry" />
        </mxCell>
        <mxCell id="_y7gnkOJSxhy1jmr7wn6-72" value="직워수" style="ellipse;whiteSpace=wrap;html=1;" vertex="1" parent="1">
          <mxGeometry x="538" y="190" width="70" height="40" as="geometry" />
        </mxCell>
        <mxCell id="_y7gnkOJSxhy1jmr7wn6-73" value="" style="endArrow=none;html=1;rounded=0;entryX=0.5;entryY=0;entryDx=0;entryDy=0;exitX=0.5;exitY=1;exitDx=0;exitDy=0;" edge="1" parent="1" source="_y7gnkOJSxhy1jmr7wn6-72" target="_y7gnkOJSxhy1jmr7wn6-62">
          <mxGeometry width="50" height="50" relative="1" as="geometry">
            <mxPoint x="588" y="310" as="sourcePoint" />
            <mxPoint x="583" y="350" as="targetPoint" />
          </mxGeometry>
        </mxCell>
        <mxCell id="_y7gnkOJSxhy1jmr7wn6-74" value="" style="endArrow=none;html=1;rounded=0;entryX=0;entryY=0.5;entryDx=0;entryDy=0;exitX=1;exitY=0.5;exitDx=0;exitDy=0;" edge="1" parent="1" source="_y7gnkOJSxhy1jmr7wn6-71" target="_y7gnkOJSxhy1jmr7wn6-62">
          <mxGeometry width="50" height="50" relative="1" as="geometry">
            <mxPoint x="583" y="240" as="sourcePoint" />
            <mxPoint x="588" y="280" as="targetPoint" />
          </mxGeometry>
        </mxCell>
        <mxCell id="_y7gnkOJSxhy1jmr7wn6-76" value="지역" style="ellipse;shape=doubleEllipse;margin=3;whiteSpace=wrap;html=1;align=center;" vertex="1" parent="1">
          <mxGeometry x="668" y="280" width="82" height="40" as="geometry" />
        </mxCell>
        <mxCell id="_y7gnkOJSxhy1jmr7wn6-78" value="" style="whiteSpace=wrap;html=1;align=center;fillColor=none;strokeColor=#FF0000;" vertex="1" parent="1">
          <mxGeometry x="190" y="330" width="70" height="40" as="geometry" />
        </mxCell>
        <mxCell id="_y7gnkOJSxhy1jmr7wn6-81" value="" style="whiteSpace=wrap;html=1;align=center;fillColor=none;strokeColor=#FF0000;" vertex="1" parent="1">
          <mxGeometry x="270" y="330" width="70" height="40" as="geometry" />
        </mxCell>
        <mxCell id="_y7gnkOJSxhy1jmr7wn6-82" value="" style="whiteSpace=wrap;html=1;align=center;fillColor=none;strokeColor=#FF0000;" vertex="1" parent="1">
          <mxGeometry x="360" y="140" width="70" height="40" as="geometry" />
        </mxCell>
        <mxCell id="_y7gnkOJSxhy1jmr7wn6-83" value="" style="whiteSpace=wrap;html=1;align=center;fillColor=none;strokeColor=#FF0000;dashed=1;" vertex="1" parent="1">
          <mxGeometry x="360" y="200" width="70" height="40" as="geometry" />
        </mxCell>
        <mxCell id="_y7gnkOJSxhy1jmr7wn6-84" value="" style="whiteSpace=wrap;html=1;align=center;fillColor=none;strokeColor=#FF0000;" vertex="1" parent="1">
          <mxGeometry x="453" y="250" width="70" height="40" as="geometry" />
        </mxCell>
        <mxCell id="_y7gnkOJSxhy1jmr7wn6-85" value="" style="whiteSpace=wrap;html=1;align=center;fillColor=none;strokeColor=#FF0000;dashed=1;" vertex="1" parent="1">
          <mxGeometry x="453" y="320" width="70" height="40" as="geometry" />
        </mxCell>
        <mxCell id="_y7gnkOJSxhy1jmr7wn6-86" value="" style="whiteSpace=wrap;html=1;align=center;fillColor=none;strokeColor=#FF0000;" vertex="1" parent="1">
          <mxGeometry x="125" y="650" width="70" height="40" as="geometry" />
        </mxCell>
        <mxCell id="_y7gnkOJSxhy1jmr7wn6-87" value="" style="whiteSpace=wrap;html=1;align=center;fillColor=none;strokeColor=#FF0000;" vertex="1" parent="1">
          <mxGeometry x="538" y="620" width="70" height="40" as="geometry" />
        </mxCell>
      </root>
    </mxGraphModel>
  </diagram>
  <diagram id="-avLK9D3SdL6osdxs1BR" name="페이지-2">
    <mxGraphModel dx="1434" dy="828" grid="1" gridSize="10" guides="1" tooltips="1" connect="1" arrows="1" fold="1" page="1" pageScale="1" pageWidth="827" pageHeight="1169" math="0" shadow="0">
      <root>
        <mxCell id="0" />
        <mxCell id="1" parent="0" />
        <mxCell id="rL13Ca6_8efTPXt2jffU-1" value="직원" style="rounded=0;whiteSpace=wrap;html=1;fontSize=17;" vertex="1" parent="1">
          <mxGeometry x="195" y="270" width="80" height="30" as="geometry" />
        </mxCell>
        <mxCell id="rL13Ca6_8efTPXt2jffU-2" value="시도" style="ellipse;whiteSpace=wrap;html=1;" vertex="1" parent="1">
          <mxGeometry x="110" y="120" width="70" height="40" as="geometry" />
        </mxCell>
        <mxCell id="rL13Ca6_8efTPXt2jffU-3" value="상세주소" style="ellipse;whiteSpace=wrap;html=1;" vertex="1" parent="1">
          <mxGeometry x="200" y="120" width="70" height="40" as="geometry" />
        </mxCell>
        <mxCell id="rL13Ca6_8efTPXt2jffU-4" value="주소" style="ellipse;whiteSpace=wrap;html=1;" vertex="1" parent="1">
          <mxGeometry x="150" y="190" width="70" height="40" as="geometry" />
        </mxCell>
        <mxCell id="rL13Ca6_8efTPXt2jffU-5" value="" style="endArrow=none;html=1;rounded=0;entryX=0.5;entryY=0;entryDx=0;entryDy=0;exitX=0.5;exitY=1;exitDx=0;exitDy=0;" edge="1" parent="1" source="rL13Ca6_8efTPXt2jffU-2" target="rL13Ca6_8efTPXt2jffU-4">
          <mxGeometry width="50" height="50" relative="1" as="geometry">
            <mxPoint x="650" y="400" as="sourcePoint" />
            <mxPoint x="700" y="350" as="targetPoint" />
          </mxGeometry>
        </mxCell>
        <mxCell id="rL13Ca6_8efTPXt2jffU-6" value="" style="endArrow=none;html=1;rounded=0;exitX=0.5;exitY=1;exitDx=0;exitDy=0;" edge="1" parent="1" source="rL13Ca6_8efTPXt2jffU-3">
          <mxGeometry width="50" height="50" relative="1" as="geometry">
            <mxPoint x="135" y="170" as="sourcePoint" />
            <mxPoint x="185" y="190" as="targetPoint" />
          </mxGeometry>
        </mxCell>
        <mxCell id="rL13Ca6_8efTPXt2jffU-7" value="참여" style="ellipse;shape=doubleEllipse;margin=3;whiteSpace=wrap;html=1;align=center;" vertex="1" parent="1">
          <mxGeometry x="270" y="180" width="70" height="40" as="geometry" />
        </mxCell>
        <mxCell id="rL13Ca6_8efTPXt2jffU-8" value="프로젝트" style="ellipse;whiteSpace=wrap;html=1;" vertex="1" parent="1">
          <mxGeometry x="360" y="140" width="70" height="40" as="geometry" />
        </mxCell>
        <mxCell id="rL13Ca6_8efTPXt2jffU-9" value="주당&lt;br&gt;근무시간" style="ellipse;whiteSpace=wrap;html=1;" vertex="1" parent="1">
          <mxGeometry x="360" y="200" width="70" height="40" as="geometry" />
        </mxCell>
        <mxCell id="rL13Ca6_8efTPXt2jffU-10" value="" style="endArrow=none;html=1;rounded=0;exitX=0;exitY=1;exitDx=0;exitDy=0;entryX=0.5;entryY=0;entryDx=0;entryDy=0;" edge="1" parent="1" source="rL13Ca6_8efTPXt2jffU-7" target="rL13Ca6_8efTPXt2jffU-1">
          <mxGeometry width="50" height="50" relative="1" as="geometry">
            <mxPoint x="245" y="170" as="sourcePoint" />
            <mxPoint x="195" y="200" as="targetPoint" />
          </mxGeometry>
        </mxCell>
        <mxCell id="rL13Ca6_8efTPXt2jffU-11" value="" style="endArrow=none;html=1;rounded=0;exitX=0.5;exitY=1;exitDx=0;exitDy=0;entryX=0.5;entryY=0;entryDx=0;entryDy=0;" edge="1" parent="1" source="rL13Ca6_8efTPXt2jffU-4" target="rL13Ca6_8efTPXt2jffU-1">
          <mxGeometry width="50" height="50" relative="1" as="geometry">
            <mxPoint x="290" y="234" as="sourcePoint" />
            <mxPoint x="210" y="270" as="targetPoint" />
          </mxGeometry>
        </mxCell>
        <mxCell id="rL13Ca6_8efTPXt2jffU-12" value="" style="endArrow=none;html=1;rounded=0;exitX=0;exitY=0.5;exitDx=0;exitDy=0;entryX=0.957;entryY=0.325;entryDx=0;entryDy=0;entryPerimeter=0;" edge="1" parent="1" source="rL13Ca6_8efTPXt2jffU-8" target="rL13Ca6_8efTPXt2jffU-7">
          <mxGeometry width="50" height="50" relative="1" as="geometry">
            <mxPoint x="290" y="234" as="sourcePoint" />
            <mxPoint x="340" y="210" as="targetPoint" />
          </mxGeometry>
        </mxCell>
        <mxCell id="rL13Ca6_8efTPXt2jffU-13" value="" style="endArrow=none;html=1;rounded=0;exitX=0.014;exitY=0.325;exitDx=0;exitDy=0;exitPerimeter=0;entryX=1;entryY=0.5;entryDx=0;entryDy=0;" edge="1" parent="1" source="rL13Ca6_8efTPXt2jffU-9" target="rL13Ca6_8efTPXt2jffU-7">
          <mxGeometry width="50" height="50" relative="1" as="geometry">
            <mxPoint x="370" y="182" as="sourcePoint" />
            <mxPoint x="340" y="210" as="targetPoint" />
          </mxGeometry>
        </mxCell>
        <mxCell id="rL13Ca6_8efTPXt2jffU-14" value="부서" style="ellipse;whiteSpace=wrap;html=1;" vertex="1" parent="1">
          <mxGeometry x="190" y="330" width="70" height="40" as="geometry" />
        </mxCell>
        <mxCell id="rL13Ca6_8efTPXt2jffU-15" value="감독자" style="ellipse;whiteSpace=wrap;html=1;" vertex="1" parent="1">
          <mxGeometry x="270" y="330" width="70" height="40" as="geometry" />
        </mxCell>
        <mxCell id="rL13Ca6_8efTPXt2jffU-16" value="급여" style="ellipse;whiteSpace=wrap;html=1;" vertex="1" parent="1">
          <mxGeometry x="50" y="210" width="70" height="40" as="geometry" />
        </mxCell>
        <mxCell id="rL13Ca6_8efTPXt2jffU-17" value="성별" style="ellipse;whiteSpace=wrap;html=1;" vertex="1" parent="1">
          <mxGeometry x="50" y="265" width="70" height="40" as="geometry" />
        </mxCell>
        <mxCell id="rL13Ca6_8efTPXt2jffU-18" value="이름" style="ellipse;whiteSpace=wrap;html=1;" vertex="1" parent="1">
          <mxGeometry x="50" y="320" width="70" height="40" as="geometry" />
        </mxCell>
        <mxCell id="rL13Ca6_8efTPXt2jffU-19" value="생년원일" style="ellipse;whiteSpace=wrap;html=1;" vertex="1" parent="1">
          <mxGeometry x="50" y="380" width="70" height="40" as="geometry" />
        </mxCell>
        <mxCell id="rL13Ca6_8efTPXt2jffU-20" value="&lt;u&gt;주민번호&lt;/u&gt;" style="ellipse;whiteSpace=wrap;html=1;" vertex="1" parent="1">
          <mxGeometry x="50" y="440" width="70" height="40" as="geometry" />
        </mxCell>
        <mxCell id="rL13Ca6_8efTPXt2jffU-21" value="" style="endArrow=none;html=1;rounded=0;exitX=1;exitY=0.5;exitDx=0;exitDy=0;entryX=0;entryY=0.5;entryDx=0;entryDy=0;" edge="1" parent="1" source="rL13Ca6_8efTPXt2jffU-16" target="rL13Ca6_8efTPXt2jffU-1">
          <mxGeometry width="50" height="50" relative="1" as="geometry">
            <mxPoint x="195" y="240" as="sourcePoint" />
            <mxPoint x="245" y="280" as="targetPoint" />
          </mxGeometry>
        </mxCell>
        <mxCell id="rL13Ca6_8efTPXt2jffU-22" value="" style="endArrow=none;html=1;rounded=0;exitX=1;exitY=0.5;exitDx=0;exitDy=0;entryX=0;entryY=0.5;entryDx=0;entryDy=0;" edge="1" parent="1" source="rL13Ca6_8efTPXt2jffU-17" target="rL13Ca6_8efTPXt2jffU-1">
          <mxGeometry width="50" height="50" relative="1" as="geometry">
            <mxPoint x="130" y="240" as="sourcePoint" />
            <mxPoint x="205" y="295" as="targetPoint" />
          </mxGeometry>
        </mxCell>
        <mxCell id="rL13Ca6_8efTPXt2jffU-23" value="" style="endArrow=none;html=1;rounded=0;exitX=1;exitY=0.5;exitDx=0;exitDy=0;entryX=0;entryY=0.5;entryDx=0;entryDy=0;" edge="1" parent="1" source="rL13Ca6_8efTPXt2jffU-18" target="rL13Ca6_8efTPXt2jffU-1">
          <mxGeometry width="50" height="50" relative="1" as="geometry">
            <mxPoint x="130" y="295" as="sourcePoint" />
            <mxPoint x="205" y="295" as="targetPoint" />
          </mxGeometry>
        </mxCell>
        <mxCell id="rL13Ca6_8efTPXt2jffU-24" value="" style="endArrow=none;html=1;rounded=0;exitX=1;exitY=0.5;exitDx=0;exitDy=0;entryX=0;entryY=0.5;entryDx=0;entryDy=0;" edge="1" parent="1" source="rL13Ca6_8efTPXt2jffU-19" target="rL13Ca6_8efTPXt2jffU-1">
          <mxGeometry width="50" height="50" relative="1" as="geometry">
            <mxPoint x="130" y="350" as="sourcePoint" />
            <mxPoint x="205" y="295" as="targetPoint" />
          </mxGeometry>
        </mxCell>
        <mxCell id="rL13Ca6_8efTPXt2jffU-25" value="" style="endArrow=none;html=1;rounded=0;exitX=1;exitY=0.5;exitDx=0;exitDy=0;entryX=0;entryY=0.5;entryDx=0;entryDy=0;" edge="1" parent="1" source="rL13Ca6_8efTPXt2jffU-20" target="rL13Ca6_8efTPXt2jffU-1">
          <mxGeometry width="50" height="50" relative="1" as="geometry">
            <mxPoint x="130" y="410" as="sourcePoint" />
            <mxPoint x="205" y="295" as="targetPoint" />
          </mxGeometry>
        </mxCell>
        <mxCell id="rL13Ca6_8efTPXt2jffU-26" value="" style="endArrow=none;html=1;rounded=0;exitX=0.5;exitY=0;exitDx=0;exitDy=0;entryX=0.5;entryY=1;entryDx=0;entryDy=0;" edge="1" parent="1" source="rL13Ca6_8efTPXt2jffU-14" target="rL13Ca6_8efTPXt2jffU-1">
          <mxGeometry width="50" height="50" relative="1" as="geometry">
            <mxPoint x="290" y="224" as="sourcePoint" />
            <mxPoint x="245" y="280" as="targetPoint" />
          </mxGeometry>
        </mxCell>
        <mxCell id="rL13Ca6_8efTPXt2jffU-27" value="" style="endArrow=none;html=1;rounded=0;exitX=0;exitY=0;exitDx=0;exitDy=0;entryX=0.5;entryY=1;entryDx=0;entryDy=0;" edge="1" parent="1" source="rL13Ca6_8efTPXt2jffU-15" target="rL13Ca6_8efTPXt2jffU-1">
          <mxGeometry width="50" height="50" relative="1" as="geometry">
            <mxPoint x="235" y="340" as="sourcePoint" />
            <mxPoint x="245" y="310" as="targetPoint" />
          </mxGeometry>
        </mxCell>
        <mxCell id="rL13Ca6_8efTPXt2jffU-28" value="부양가족" style="shape=ext;margin=3;double=1;whiteSpace=wrap;html=1;align=center;" vertex="1" parent="1">
          <mxGeometry x="95" y="550" width="100" height="40" as="geometry" />
        </mxCell>
        <mxCell id="rL13Ca6_8efTPXt2jffU-29" value="직원" style="ellipse;whiteSpace=wrap;html=1;" vertex="1" parent="1">
          <mxGeometry x="125" y="650" width="70" height="40" as="geometry" />
        </mxCell>
        <mxCell id="rL13Ca6_8efTPXt2jffU-30" value="이름" style="ellipse;whiteSpace=wrap;html=1;" vertex="1" parent="1">
          <mxGeometry x="205" y="490" width="70" height="40" as="geometry" />
        </mxCell>
        <mxCell id="rL13Ca6_8efTPXt2jffU-31" value="성별" style="ellipse;whiteSpace=wrap;html=1;" vertex="1" parent="1">
          <mxGeometry x="285" y="530" width="70" height="40" as="geometry" />
        </mxCell>
        <mxCell id="rL13Ca6_8efTPXt2jffU-32" value="생년월일" style="ellipse;whiteSpace=wrap;html=1;" vertex="1" parent="1">
          <mxGeometry x="285" y="580" width="70" height="40" as="geometry" />
        </mxCell>
        <mxCell id="rL13Ca6_8efTPXt2jffU-33" value="관계" style="ellipse;whiteSpace=wrap;html=1;" vertex="1" parent="1">
          <mxGeometry x="205" y="610" width="70" height="40" as="geometry" />
        </mxCell>
        <mxCell id="rL13Ca6_8efTPXt2jffU-34" value="" style="endArrow=none;html=1;rounded=0;exitX=0.5;exitY=1;exitDx=0;exitDy=0;entryX=0.5;entryY=0;entryDx=0;entryDy=0;" edge="1" parent="1" source="rL13Ca6_8efTPXt2jffU-28" target="rL13Ca6_8efTPXt2jffU-29">
          <mxGeometry width="50" height="50" relative="1" as="geometry">
            <mxPoint x="105" y="440" as="sourcePoint" />
            <mxPoint x="180" y="265" as="targetPoint" />
          </mxGeometry>
        </mxCell>
        <mxCell id="rL13Ca6_8efTPXt2jffU-35" value="" style="endArrow=none;html=1;rounded=0;exitX=1;exitY=0.5;exitDx=0;exitDy=0;entryX=0;entryY=0;entryDx=0;entryDy=0;" edge="1" parent="1" source="rL13Ca6_8efTPXt2jffU-28" target="rL13Ca6_8efTPXt2jffU-33">
          <mxGeometry width="50" height="50" relative="1" as="geometry">
            <mxPoint x="155" y="600" as="sourcePoint" />
            <mxPoint x="170" y="660" as="targetPoint" />
          </mxGeometry>
        </mxCell>
        <mxCell id="rL13Ca6_8efTPXt2jffU-36" value="" style="endArrow=none;html=1;rounded=0;exitX=1;exitY=0.5;exitDx=0;exitDy=0;entryX=0.386;entryY=0.975;entryDx=0;entryDy=0;entryPerimeter=0;" edge="1" parent="1" source="rL13Ca6_8efTPXt2jffU-28" target="rL13Ca6_8efTPXt2jffU-30">
          <mxGeometry width="50" height="50" relative="1" as="geometry">
            <mxPoint x="205" y="580" as="sourcePoint" />
            <mxPoint x="225" y="626" as="targetPoint" />
          </mxGeometry>
        </mxCell>
        <mxCell id="rL13Ca6_8efTPXt2jffU-37" value="" style="endArrow=none;html=1;rounded=0;entryX=0;entryY=0.5;entryDx=0;entryDy=0;exitX=1;exitY=0.5;exitDx=0;exitDy=0;" edge="1" parent="1" source="rL13Ca6_8efTPXt2jffU-28" target="rL13Ca6_8efTPXt2jffU-31">
          <mxGeometry width="50" height="50" relative="1" as="geometry">
            <mxPoint x="195" y="570" as="sourcePoint" />
            <mxPoint x="229" y="541" as="targetPoint" />
          </mxGeometry>
        </mxCell>
        <mxCell id="rL13Ca6_8efTPXt2jffU-38" value="" style="endArrow=none;html=1;rounded=0;entryX=0;entryY=0.5;entryDx=0;entryDy=0;" edge="1" parent="1" target="rL13Ca6_8efTPXt2jffU-32">
          <mxGeometry width="50" height="50" relative="1" as="geometry">
            <mxPoint x="195" y="570" as="sourcePoint" />
            <mxPoint x="295" y="560" as="targetPoint" />
          </mxGeometry>
        </mxCell>
        <mxCell id="rL13Ca6_8efTPXt2jffU-39" value="프로젝트" style="rounded=0;whiteSpace=wrap;html=1;fontSize=17;" vertex="1" parent="1">
          <mxGeometry x="538" y="550" width="80" height="30" as="geometry" />
        </mxCell>
        <mxCell id="rL13Ca6_8efTPXt2jffU-40" value="부서" style="ellipse;whiteSpace=wrap;html=1;" vertex="1" parent="1">
          <mxGeometry x="538" y="620" width="70" height="40" as="geometry" />
        </mxCell>
        <mxCell id="rL13Ca6_8efTPXt2jffU-41" value="프로젝트명" style="ellipse;whiteSpace=wrap;html=1;" vertex="1" parent="1">
          <mxGeometry x="668" y="500" width="80" height="40" as="geometry" />
        </mxCell>
        <mxCell id="rL13Ca6_8efTPXt2jffU-42" value="지역" style="ellipse;whiteSpace=wrap;html=1;" vertex="1" parent="1">
          <mxGeometry x="668" y="560" width="80" height="40" as="geometry" />
        </mxCell>
        <mxCell id="rL13Ca6_8efTPXt2jffU-43" value="프로젝트번호" style="ellipse;whiteSpace=wrap;html=1;" vertex="1" parent="1">
          <mxGeometry x="668" y="620" width="90" height="40" as="geometry" />
        </mxCell>
        <mxCell id="rL13Ca6_8efTPXt2jffU-44" value="" style="endArrow=none;html=1;rounded=0;entryX=0.5;entryY=0;entryDx=0;entryDy=0;exitX=0.5;exitY=1;exitDx=0;exitDy=0;" edge="1" parent="1" source="rL13Ca6_8efTPXt2jffU-39" target="rL13Ca6_8efTPXt2jffU-40">
          <mxGeometry width="50" height="50" relative="1" as="geometry">
            <mxPoint x="283" y="580" as="sourcePoint" />
            <mxPoint x="373" y="610" as="targetPoint" />
          </mxGeometry>
        </mxCell>
        <mxCell id="rL13Ca6_8efTPXt2jffU-45" value="" style="endArrow=none;html=1;rounded=0;entryX=0;entryY=0.5;entryDx=0;entryDy=0;exitX=1;exitY=0.5;exitDx=0;exitDy=0;" edge="1" parent="1" source="rL13Ca6_8efTPXt2jffU-39" target="rL13Ca6_8efTPXt2jffU-43">
          <mxGeometry width="50" height="50" relative="1" as="geometry">
            <mxPoint x="588" y="590" as="sourcePoint" />
            <mxPoint x="583" y="630" as="targetPoint" />
          </mxGeometry>
        </mxCell>
        <mxCell id="rL13Ca6_8efTPXt2jffU-46" value="" style="endArrow=none;html=1;rounded=0;entryX=0;entryY=0.5;entryDx=0;entryDy=0;exitX=1;exitY=0.5;exitDx=0;exitDy=0;" edge="1" parent="1" source="rL13Ca6_8efTPXt2jffU-39" target="rL13Ca6_8efTPXt2jffU-42">
          <mxGeometry width="50" height="50" relative="1" as="geometry">
            <mxPoint x="628" y="575" as="sourcePoint" />
            <mxPoint x="678" y="650" as="targetPoint" />
          </mxGeometry>
        </mxCell>
        <mxCell id="rL13Ca6_8efTPXt2jffU-47" value="" style="endArrow=none;html=1;rounded=0;entryX=0;entryY=0.5;entryDx=0;entryDy=0;exitX=1;exitY=0.5;exitDx=0;exitDy=0;" edge="1" parent="1" source="rL13Ca6_8efTPXt2jffU-39" target="rL13Ca6_8efTPXt2jffU-41">
          <mxGeometry width="50" height="50" relative="1" as="geometry">
            <mxPoint x="618" y="570" as="sourcePoint" />
            <mxPoint x="678" y="590" as="targetPoint" />
          </mxGeometry>
        </mxCell>
        <mxCell id="rL13Ca6_8efTPXt2jffU-48" value="부서" style="rounded=0;whiteSpace=wrap;html=1;fontSize=17;" vertex="1" parent="1">
          <mxGeometry x="538" y="270" width="80" height="30" as="geometry" />
        </mxCell>
        <mxCell id="rL13Ca6_8efTPXt2jffU-49" value="관리시작일" style="ellipse;whiteSpace=wrap;html=1;" vertex="1" parent="1">
          <mxGeometry x="453" y="320" width="70" height="40" as="geometry" />
        </mxCell>
        <mxCell id="rL13Ca6_8efTPXt2jffU-50" value="부서명" style="ellipse;whiteSpace=wrap;html=1;" vertex="1" parent="1">
          <mxGeometry x="668" y="220" width="80" height="40" as="geometry" />
        </mxCell>
        <mxCell id="rL13Ca6_8efTPXt2jffU-51" value="부서번호" style="ellipse;whiteSpace=wrap;html=1;" vertex="1" parent="1">
          <mxGeometry x="668" y="340" width="90" height="40" as="geometry" />
        </mxCell>
        <mxCell id="rL13Ca6_8efTPXt2jffU-52" value="" style="endArrow=none;html=1;rounded=0;entryX=0.5;entryY=0;entryDx=0;entryDy=0;exitX=0;exitY=0.75;exitDx=0;exitDy=0;" edge="1" parent="1" source="rL13Ca6_8efTPXt2jffU-48" target="rL13Ca6_8efTPXt2jffU-49">
          <mxGeometry width="50" height="50" relative="1" as="geometry">
            <mxPoint x="283" y="300" as="sourcePoint" />
            <mxPoint x="373" y="330" as="targetPoint" />
          </mxGeometry>
        </mxCell>
        <mxCell id="rL13Ca6_8efTPXt2jffU-53" value="" style="endArrow=none;html=1;rounded=0;entryX=0;entryY=0.5;entryDx=0;entryDy=0;exitX=1;exitY=0.5;exitDx=0;exitDy=0;" edge="1" parent="1" source="rL13Ca6_8efTPXt2jffU-48" target="rL13Ca6_8efTPXt2jffU-51">
          <mxGeometry width="50" height="50" relative="1" as="geometry">
            <mxPoint x="588" y="310" as="sourcePoint" />
            <mxPoint x="583" y="350" as="targetPoint" />
          </mxGeometry>
        </mxCell>
        <mxCell id="rL13Ca6_8efTPXt2jffU-54" value="" style="endArrow=none;html=1;rounded=0;entryX=0;entryY=0.5;entryDx=0;entryDy=0;exitX=1;exitY=0.5;exitDx=0;exitDy=0;" edge="1" parent="1" source="rL13Ca6_8efTPXt2jffU-48">
          <mxGeometry width="50" height="50" relative="1" as="geometry">
            <mxPoint x="628" y="295" as="sourcePoint" />
            <mxPoint x="668" y="300" as="targetPoint" />
          </mxGeometry>
        </mxCell>
        <mxCell id="rL13Ca6_8efTPXt2jffU-55" value="" style="endArrow=none;html=1;rounded=0;entryX=0;entryY=0.5;entryDx=0;entryDy=0;exitX=1;exitY=0.5;exitDx=0;exitDy=0;" edge="1" parent="1" source="rL13Ca6_8efTPXt2jffU-48" target="rL13Ca6_8efTPXt2jffU-50">
          <mxGeometry width="50" height="50" relative="1" as="geometry">
            <mxPoint x="618" y="290" as="sourcePoint" />
            <mxPoint x="678" y="310" as="targetPoint" />
          </mxGeometry>
        </mxCell>
        <mxCell id="rL13Ca6_8efTPXt2jffU-56" value="관리자" style="ellipse;whiteSpace=wrap;html=1;" vertex="1" parent="1">
          <mxGeometry x="453" y="250" width="70" height="40" as="geometry" />
        </mxCell>
        <mxCell id="rL13Ca6_8efTPXt2jffU-57" value="직워수" style="ellipse;whiteSpace=wrap;html=1;" vertex="1" parent="1">
          <mxGeometry x="538" y="190" width="70" height="40" as="geometry" />
        </mxCell>
        <mxCell id="rL13Ca6_8efTPXt2jffU-58" value="" style="endArrow=none;html=1;rounded=0;entryX=0.5;entryY=0;entryDx=0;entryDy=0;exitX=0.5;exitY=1;exitDx=0;exitDy=0;" edge="1" parent="1" source="rL13Ca6_8efTPXt2jffU-57" target="rL13Ca6_8efTPXt2jffU-48">
          <mxGeometry width="50" height="50" relative="1" as="geometry">
            <mxPoint x="588" y="310" as="sourcePoint" />
            <mxPoint x="583" y="350" as="targetPoint" />
          </mxGeometry>
        </mxCell>
        <mxCell id="rL13Ca6_8efTPXt2jffU-59" value="" style="endArrow=none;html=1;rounded=0;entryX=0;entryY=0.5;entryDx=0;entryDy=0;exitX=1;exitY=0.5;exitDx=0;exitDy=0;" edge="1" parent="1" source="rL13Ca6_8efTPXt2jffU-56" target="rL13Ca6_8efTPXt2jffU-48">
          <mxGeometry width="50" height="50" relative="1" as="geometry">
            <mxPoint x="583" y="240" as="sourcePoint" />
            <mxPoint x="588" y="280" as="targetPoint" />
          </mxGeometry>
        </mxCell>
        <mxCell id="rL13Ca6_8efTPXt2jffU-60" value="지역" style="ellipse;shape=doubleEllipse;margin=3;whiteSpace=wrap;html=1;align=center;" vertex="1" parent="1">
          <mxGeometry x="668" y="280" width="82" height="40" as="geometry" />
        </mxCell>
      </root>
    </mxGraphModel>
  </diagram>
  <diagram id="zDuqbJSiHtFeIY908uoe" name="페이지-3">
    <mxGraphModel dx="1434" dy="828" grid="1" gridSize="10" guides="1" tooltips="1" connect="1" arrows="1" fold="1" page="1" pageScale="1" pageWidth="827" pageHeight="1169" math="0" shadow="0">
      <root>
        <mxCell id="0" />
        <mxCell id="1" parent="0" />
        <mxCell id="1BNzbQOBtv5m7VLYZoQB-1" value="&lt;span style=&quot;border-bottom: 1px dotted; font-size: 14px;&quot;&gt;홍길동&amp;nbsp;&amp;nbsp;&lt;br style=&quot;font-size: 14px;&quot;&gt;&lt;br style=&quot;font-size: 14px;&quot;&gt;강감찬&lt;br style=&quot;font-size: 14px;&quot;&gt;&lt;br style=&quot;font-size: 14px;&quot;&gt;김유신&lt;br style=&quot;font-size: 14px;&quot;&gt;&lt;br style=&quot;font-size: 14px;&quot;&gt;유관순&lt;br style=&quot;font-size: 14px;&quot;&gt;&lt;br style=&quot;font-size: 14px;&quot;&gt;이순신&lt;br style=&quot;font-size: 14px;&quot;&gt;&lt;/span&gt;" style="ellipse;whiteSpace=wrap;html=1;align=center;fontSize=14;" vertex="1" parent="1">
          <mxGeometry x="145" y="120" width="110" height="220" as="geometry" />
        </mxCell>
        <mxCell id="1BNzbQOBtv5m7VLYZoQB-2" value="&lt;span style=&quot;border-bottom: 1px dotted; font-size: 14px;&quot;&gt;&lt;br style=&quot;font-size: 14px;&quot;&gt;&lt;/span&gt;" style="ellipse;whiteSpace=wrap;html=1;align=center;fontSize=14;" vertex="1" parent="1">
          <mxGeometry x="320" y="120" width="110" height="220" as="geometry" />
        </mxCell>
        <mxCell id="1BNzbQOBtv5m7VLYZoQB-3" value="&lt;span style=&quot;border-bottom: 1px dotted; font-size: 14px;&quot;&gt;&lt;br style=&quot;font-size: 14px;&quot;&gt;&lt;/span&gt;" style="ellipse;whiteSpace=wrap;html=1;align=center;fontSize=14;" vertex="1" parent="1">
          <mxGeometry x="500" y="120" width="110" height="220" as="geometry" />
        </mxCell>
        <mxCell id="1BNzbQOBtv5m7VLYZoQB-4" value="" style="endArrow=none;html=1;rounded=0;exitX=0.5;exitY=0.75;exitDx=0;exitDy=0;exitPerimeter=0;entryX=0.5;entryY=0.95;entryDx=0;entryDy=0;entryPerimeter=0;" edge="1" parent="1" source="1BNzbQOBtv5m7VLYZoQB-18" target="1BNzbQOBtv5m7VLYZoQB-5">
          <mxGeometry relative="1" as="geometry">
            <mxPoint x="330" y="430" as="sourcePoint" />
            <mxPoint x="490" y="430" as="targetPoint" />
          </mxGeometry>
        </mxCell>
        <mxCell id="1BNzbQOBtv5m7VLYZoQB-5" value="" style="shape=waypoint;sketch=0;fillStyle=solid;size=6;pointerEvents=1;points=[];fillColor=none;resizable=0;rotatable=0;perimeter=centerPerimeter;snapToPoint=1;" vertex="1" parent="1">
          <mxGeometry x="365" y="155" width="20" height="20" as="geometry" />
        </mxCell>
        <mxCell id="1BNzbQOBtv5m7VLYZoQB-6" value="" style="shape=waypoint;sketch=0;fillStyle=solid;size=6;pointerEvents=1;points=[];fillColor=none;resizable=0;rotatable=0;perimeter=centerPerimeter;snapToPoint=1;" vertex="1" parent="1">
          <mxGeometry x="365" y="186" width="20" height="20" as="geometry" />
        </mxCell>
        <mxCell id="1BNzbQOBtv5m7VLYZoQB-7" value="" style="shape=waypoint;sketch=0;fillStyle=solid;size=6;pointerEvents=1;points=[];fillColor=none;resizable=0;rotatable=0;perimeter=centerPerimeter;snapToPoint=1;" vertex="1" parent="1">
          <mxGeometry x="365" y="219" width="20" height="20" as="geometry" />
        </mxCell>
        <mxCell id="1BNzbQOBtv5m7VLYZoQB-8" value="" style="shape=waypoint;sketch=0;fillStyle=solid;size=6;pointerEvents=1;points=[];fillColor=none;resizable=0;rotatable=0;perimeter=centerPerimeter;snapToPoint=1;" vertex="1" parent="1">
          <mxGeometry x="365" y="252" width="20" height="20" as="geometry" />
        </mxCell>
        <mxCell id="1BNzbQOBtv5m7VLYZoQB-9" value="" style="shape=waypoint;sketch=0;fillStyle=solid;size=6;pointerEvents=1;points=[];fillColor=none;resizable=0;rotatable=0;perimeter=centerPerimeter;snapToPoint=1;" vertex="1" parent="1">
          <mxGeometry x="365" y="282" width="20" height="20" as="geometry" />
        </mxCell>
        <mxCell id="1BNzbQOBtv5m7VLYZoQB-10" value="             MIS" style="shape=waypoint;sketch=0;fillStyle=solid;size=6;pointerEvents=1;points=[];fillColor=none;resizable=0;rotatable=0;perimeter=centerPerimeter;snapToPoint=1;fontSize=14;" vertex="1" parent="1">
          <mxGeometry x="537" y="180" width="20" height="20" as="geometry" />
        </mxCell>
        <mxCell id="1BNzbQOBtv5m7VLYZoQB-11" value="            경영" style="shape=waypoint;sketch=0;fillStyle=solid;size=6;pointerEvents=1;points=[];fillColor=none;resizable=0;rotatable=0;perimeter=centerPerimeter;snapToPoint=1;fontSize=14;" vertex="1" parent="1">
          <mxGeometry x="537" y="220" width="20" height="20" as="geometry" />
        </mxCell>
        <mxCell id="1BNzbQOBtv5m7VLYZoQB-12" value="             전산" style="shape=waypoint;sketch=0;fillStyle=solid;size=6;pointerEvents=1;points=[];fillColor=none;resizable=0;rotatable=0;perimeter=centerPerimeter;snapToPoint=1;fontSize=14;" vertex="1" parent="1">
          <mxGeometry x="537" y="260" width="20" height="20" as="geometry" />
        </mxCell>
        <mxCell id="1BNzbQOBtv5m7VLYZoQB-13" value="학생" style="text;strokeColor=none;fillColor=none;html=1;fontSize=24;fontStyle=1;verticalAlign=middle;align=center;" vertex="1" parent="1">
          <mxGeometry x="145" y="77" width="105" height="40" as="geometry" />
        </mxCell>
        <mxCell id="1BNzbQOBtv5m7VLYZoQB-14" value="전공" style="text;strokeColor=none;fillColor=none;html=1;fontSize=24;fontStyle=1;verticalAlign=middle;align=center;" vertex="1" parent="1">
          <mxGeometry x="320" y="77" width="100" height="40" as="geometry" />
        </mxCell>
        <mxCell id="1BNzbQOBtv5m7VLYZoQB-15" value="학과" style="text;strokeColor=none;fillColor=none;html=1;fontSize=24;fontStyle=1;verticalAlign=middle;align=center;" vertex="1" parent="1">
          <mxGeometry x="505" y="77" width="100" height="40" as="geometry" />
        </mxCell>
        <mxCell id="1BNzbQOBtv5m7VLYZoQB-18" value="" style="shape=waypoint;sketch=0;fillStyle=solid;size=6;pointerEvents=1;points=[];fillColor=none;resizable=0;rotatable=0;perimeter=centerPerimeter;snapToPoint=1;" vertex="1" parent="1">
          <mxGeometry x="220" y="155" width="20" height="20" as="geometry" />
        </mxCell>
        <mxCell id="1BNzbQOBtv5m7VLYZoQB-19" value="" style="shape=waypoint;sketch=0;fillStyle=solid;size=6;pointerEvents=1;points=[];fillColor=none;resizable=0;rotatable=0;perimeter=centerPerimeter;snapToPoint=1;" vertex="1" parent="1">
          <mxGeometry x="220" y="186" width="20" height="20" as="geometry" />
        </mxCell>
        <mxCell id="1BNzbQOBtv5m7VLYZoQB-20" value="" style="shape=waypoint;sketch=0;fillStyle=solid;size=6;pointerEvents=1;points=[];fillColor=none;resizable=0;rotatable=0;perimeter=centerPerimeter;snapToPoint=1;" vertex="1" parent="1">
          <mxGeometry x="220" y="219" width="20" height="20" as="geometry" />
        </mxCell>
        <mxCell id="1BNzbQOBtv5m7VLYZoQB-21" value="" style="shape=waypoint;sketch=0;fillStyle=solid;size=6;pointerEvents=1;points=[];fillColor=none;resizable=0;rotatable=0;perimeter=centerPerimeter;snapToPoint=1;" vertex="1" parent="1">
          <mxGeometry x="220" y="252" width="20" height="20" as="geometry" />
        </mxCell>
        <mxCell id="1BNzbQOBtv5m7VLYZoQB-22" value="" style="shape=waypoint;sketch=0;fillStyle=solid;size=6;pointerEvents=1;points=[];fillColor=none;resizable=0;rotatable=0;perimeter=centerPerimeter;snapToPoint=1;" vertex="1" parent="1">
          <mxGeometry x="220" y="282" width="20" height="20" as="geometry" />
        </mxCell>
        <mxCell id="1BNzbQOBtv5m7VLYZoQB-24" value="" style="endArrow=none;html=1;rounded=0;entryX=0.25;entryY=0.65;entryDx=0;entryDy=0;entryPerimeter=0;" edge="1" parent="1" source="1BNzbQOBtv5m7VLYZoQB-5" target="1BNzbQOBtv5m7VLYZoQB-10">
          <mxGeometry relative="1" as="geometry">
            <mxPoint x="240" y="175" as="sourcePoint" />
            <mxPoint x="385" y="175" as="targetPoint" />
          </mxGeometry>
        </mxCell>
        <mxCell id="1BNzbQOBtv5m7VLYZoQB-25" value="" style="endArrow=none;html=1;rounded=0;entryX=0.4;entryY=0.2;entryDx=0;entryDy=0;entryPerimeter=0;" edge="1" parent="1" source="1BNzbQOBtv5m7VLYZoQB-19" target="1BNzbQOBtv5m7VLYZoQB-6">
          <mxGeometry relative="1" as="geometry">
            <mxPoint x="240" y="175" as="sourcePoint" />
            <mxPoint x="385" y="175" as="targetPoint" />
          </mxGeometry>
        </mxCell>
        <mxCell id="1BNzbQOBtv5m7VLYZoQB-26" value="" style="endArrow=none;html=1;rounded=0;" edge="1" parent="1" source="1BNzbQOBtv5m7VLYZoQB-20" target="1BNzbQOBtv5m7VLYZoQB-7">
          <mxGeometry relative="1" as="geometry">
            <mxPoint x="240" y="206" as="sourcePoint" />
            <mxPoint x="395" y="185" as="targetPoint" />
          </mxGeometry>
        </mxCell>
        <mxCell id="1BNzbQOBtv5m7VLYZoQB-27" value="" style="endArrow=none;html=1;rounded=0;entryX=0.05;entryY=0.35;entryDx=0;entryDy=0;entryPerimeter=0;exitX=0.3;exitY=0.25;exitDx=0;exitDy=0;exitPerimeter=0;" edge="1" parent="1" source="1BNzbQOBtv5m7VLYZoQB-21" target="1BNzbQOBtv5m7VLYZoQB-8">
          <mxGeometry relative="1" as="geometry">
            <mxPoint x="240" y="239" as="sourcePoint" />
            <mxPoint x="405" y="195" as="targetPoint" />
          </mxGeometry>
        </mxCell>
        <mxCell id="1BNzbQOBtv5m7VLYZoQB-28" value="" style="endArrow=none;html=1;rounded=0;entryX=0.85;entryY=0.35;entryDx=0;entryDy=0;entryPerimeter=0;exitX=0.3;exitY=0.55;exitDx=0;exitDy=0;exitPerimeter=0;" edge="1" parent="1" source="1BNzbQOBtv5m7VLYZoQB-22" target="1BNzbQOBtv5m7VLYZoQB-9">
          <mxGeometry relative="1" as="geometry">
            <mxPoint x="240" y="272" as="sourcePoint" />
            <mxPoint x="415" y="205" as="targetPoint" />
          </mxGeometry>
        </mxCell>
        <mxCell id="1BNzbQOBtv5m7VLYZoQB-29" value="" style="endArrow=none;html=1;rounded=0;exitX=0.9;exitY=0.4;exitDx=0;exitDy=0;exitPerimeter=0;" edge="1" parent="1" source="1BNzbQOBtv5m7VLYZoQB-6">
          <mxGeometry relative="1" as="geometry">
            <mxPoint x="385" y="175" as="sourcePoint" />
            <mxPoint x="550" y="190" as="targetPoint" />
          </mxGeometry>
        </mxCell>
        <mxCell id="1BNzbQOBtv5m7VLYZoQB-30" value="" style="endArrow=none;html=1;rounded=0;exitX=1;exitY=0.35;exitDx=0;exitDy=0;exitPerimeter=0;entryX=0.55;entryY=0.75;entryDx=0;entryDy=0;entryPerimeter=0;" edge="1" parent="1" source="1BNzbQOBtv5m7VLYZoQB-7" target="1BNzbQOBtv5m7VLYZoQB-10">
          <mxGeometry relative="1" as="geometry">
            <mxPoint x="385" y="206" as="sourcePoint" />
            <mxPoint x="560" y="200" as="targetPoint" />
          </mxGeometry>
        </mxCell>
        <mxCell id="1BNzbQOBtv5m7VLYZoQB-31" value="" style="endArrow=none;html=1;rounded=0;entryX=0.35;entryY=0.9;entryDx=0;entryDy=0;entryPerimeter=0;" edge="1" parent="1" source="1BNzbQOBtv5m7VLYZoQB-8" target="1BNzbQOBtv5m7VLYZoQB-11">
          <mxGeometry relative="1" as="geometry">
            <mxPoint x="385" y="239" as="sourcePoint" />
            <mxPoint x="557" y="200" as="targetPoint" />
          </mxGeometry>
        </mxCell>
        <mxCell id="1BNzbQOBtv5m7VLYZoQB-32" value="" style="endArrow=none;html=1;rounded=0;" edge="1" parent="1" source="1BNzbQOBtv5m7VLYZoQB-9">
          <mxGeometry relative="1" as="geometry">
            <mxPoint x="385" y="272" as="sourcePoint" />
            <mxPoint x="550" y="230" as="targetPoint" />
          </mxGeometry>
        </mxCell>
        <mxCell id="1BNzbQOBtv5m7VLYZoQB-33" value="학생" style="rounded=1;arcSize=10;whiteSpace=wrap;html=1;align=center;fontSize=14;" vertex="1" parent="1">
          <mxGeometry x="137" y="470" width="100" height="40" as="geometry" />
        </mxCell>
        <mxCell id="1BNzbQOBtv5m7VLYZoQB-34" value="학과" style="rounded=1;arcSize=10;whiteSpace=wrap;html=1;align=center;fontSize=14;" vertex="1" parent="1">
          <mxGeometry x="475" y="470" width="100" height="40" as="geometry" />
        </mxCell>
        <mxCell id="1BNzbQOBtv5m7VLYZoQB-43" value="" style="endArrow=none;html=1;rounded=0;entryX=0;entryY=0.5;entryDx=0;entryDy=0;" edge="1" parent="1" target="1BNzbQOBtv5m7VLYZoQB-34">
          <mxGeometry relative="1" as="geometry">
            <mxPoint x="240" y="489.5" as="sourcePoint" />
            <mxPoint x="400" y="489.5" as="targetPoint" />
          </mxGeometry>
        </mxCell>
        <mxCell id="1BNzbQOBtv5m7VLYZoQB-44" value="N" style="resizable=0;html=1;whiteSpace=wrap;align=left;verticalAlign=bottom;" connectable="0" vertex="1" parent="1BNzbQOBtv5m7VLYZoQB-43">
          <mxGeometry x="-1" relative="1" as="geometry" />
        </mxCell>
        <mxCell id="1BNzbQOBtv5m7VLYZoQB-45" value="1" style="resizable=0;html=1;whiteSpace=wrap;align=right;verticalAlign=bottom;" connectable="0" vertex="1" parent="1BNzbQOBtv5m7VLYZoQB-43">
          <mxGeometry x="1" relative="1" as="geometry" />
        </mxCell>
        <mxCell id="1BNzbQOBtv5m7VLYZoQB-36" value="전공" style="shape=rhombus;perimeter=rhombusPerimeter;whiteSpace=wrap;html=1;align=center;" vertex="1" parent="1">
          <mxGeometry x="300" y="460" width="120" height="60" as="geometry" />
        </mxCell>
        <mxCell id="1BNzbQOBtv5m7VLYZoQB-46" value="학생" style="rounded=1;arcSize=10;whiteSpace=wrap;html=1;align=center;fontSize=14;" vertex="1" parent="1">
          <mxGeometry x="137" y="590" width="100" height="40" as="geometry" />
        </mxCell>
        <mxCell id="1BNzbQOBtv5m7VLYZoQB-47" value="학과" style="rounded=1;arcSize=10;whiteSpace=wrap;html=1;align=center;fontSize=14;" vertex="1" parent="1">
          <mxGeometry x="475" y="590" width="100" height="40" as="geometry" />
        </mxCell>
        <mxCell id="1BNzbQOBtv5m7VLYZoQB-48" value="" style="endArrow=none;html=1;rounded=0;entryX=0;entryY=0.5;entryDx=0;entryDy=0;" edge="1" target="1BNzbQOBtv5m7VLYZoQB-47" parent="1">
          <mxGeometry relative="1" as="geometry">
            <mxPoint x="240" y="609.5" as="sourcePoint" />
            <mxPoint x="400" y="609.5" as="targetPoint" />
          </mxGeometry>
        </mxCell>
        <mxCell id="1BNzbQOBtv5m7VLYZoQB-49" value="1" style="resizable=0;html=1;whiteSpace=wrap;align=left;verticalAlign=bottom;" connectable="0" vertex="1" parent="1BNzbQOBtv5m7VLYZoQB-48">
          <mxGeometry x="-1" relative="1" as="geometry" />
        </mxCell>
        <mxCell id="1BNzbQOBtv5m7VLYZoQB-50" value="1" style="resizable=0;html=1;whiteSpace=wrap;align=right;verticalAlign=bottom;" connectable="0" vertex="1" parent="1BNzbQOBtv5m7VLYZoQB-48">
          <mxGeometry x="1" relative="1" as="geometry" />
        </mxCell>
        <mxCell id="1BNzbQOBtv5m7VLYZoQB-51" value="과대표" style="shape=rhombus;perimeter=rhombusPerimeter;whiteSpace=wrap;html=1;align=center;" vertex="1" parent="1">
          <mxGeometry x="300" y="580" width="120" height="60" as="geometry" />
        </mxCell>
        <mxCell id="1BNzbQOBtv5m7VLYZoQB-52" value="학생" style="rounded=1;arcSize=10;whiteSpace=wrap;html=1;align=center;fontSize=14;" vertex="1" parent="1">
          <mxGeometry x="137" y="700" width="100" height="40" as="geometry" />
        </mxCell>
        <mxCell id="1BNzbQOBtv5m7VLYZoQB-53" value="과목" style="rounded=1;arcSize=10;whiteSpace=wrap;html=1;align=center;fontSize=14;" vertex="1" parent="1">
          <mxGeometry x="475" y="700" width="100" height="40" as="geometry" />
        </mxCell>
        <mxCell id="1BNzbQOBtv5m7VLYZoQB-54" value="" style="endArrow=none;html=1;rounded=0;entryX=0;entryY=0.5;entryDx=0;entryDy=0;" edge="1" target="1BNzbQOBtv5m7VLYZoQB-53" parent="1">
          <mxGeometry relative="1" as="geometry">
            <mxPoint x="240" y="719.5" as="sourcePoint" />
            <mxPoint x="400" y="719.5" as="targetPoint" />
          </mxGeometry>
        </mxCell>
        <mxCell id="1BNzbQOBtv5m7VLYZoQB-55" value="M" style="resizable=0;html=1;whiteSpace=wrap;align=left;verticalAlign=bottom;" connectable="0" vertex="1" parent="1BNzbQOBtv5m7VLYZoQB-54">
          <mxGeometry x="-1" relative="1" as="geometry" />
        </mxCell>
        <mxCell id="1BNzbQOBtv5m7VLYZoQB-56" value="N" style="resizable=0;html=1;whiteSpace=wrap;align=right;verticalAlign=bottom;" connectable="0" vertex="1" parent="1BNzbQOBtv5m7VLYZoQB-54">
          <mxGeometry x="1" relative="1" as="geometry" />
        </mxCell>
        <mxCell id="1BNzbQOBtv5m7VLYZoQB-57" value="수강" style="shape=rhombus;perimeter=rhombusPerimeter;whiteSpace=wrap;html=1;align=center;" vertex="1" parent="1">
          <mxGeometry x="294" y="690" width="120" height="60" as="geometry" />
        </mxCell>
      </root>
    </mxGraphModel>
  </diagram>
</mxfile>
